Coordinates
version=1
nRows=26
nColumns=38
inDegrees=no

Units are S.I. units (second, meters, Newtons, ...)
If the header above contains a line with 'inDegrees', this indicates whether rotational values are in degrees (yes) or radians (no).

endheader
time	pelvis_tilt	pelvis_list	pelvis_rotation	pelvis_tx	pelvis_ty	pelvis_tz	hip_flexion_r	hip_adduction_r	hip_rotation_r	knee_angle_r	ankle_angle_r	subtalar_angle_r	mtp_angle_r	hip_flexion_l	hip_adduction_l	hip_rotation_l	knee_angle_l	ankle_angle_l	subtalar_angle_l	mtp_angle_l	lumbar_extension	lumbar_bending	lumbar_rotation	arm_flex_r	arm_add_r	arm_rot_r	elbow_flex_r	pro_sup_r	wrist_flex_r	wrist_dev_r	arm_flex_l	arm_add_l	arm_rot_l	elbow_flex_l	pro_sup_l	wrist_flex_l	wrist_dev_l
2.7075	-0.112256	0.0100069	-3.10378	-0.112641	0.979315	-0.0439543	-0.0804135	0.0660482	-0.0896219	0.188793	0.147757	0	0	0.33607	-0.110591	-0.152671	0.907208	0.0441705	0	0	-0.308031	0.0106584	0.150039	0.527572	-0.446841	1.36974	0.640301	0.396868	0	0	0.134795	-0.257643	1.5708	0.452782	-0.000883459	0	0
2.7175	-0.113377	0.00788612	-3.09968	-0.111636	0.978983	-0.0439668	-0.0924249	0.0652669	-0.0917529	0.184985	0.15533	0	0	0.341425	-0.105447	-0.158938	0.866181	0.0482276	0	0	-0.309989	0.00784421	0.1536	0.533716	-0.452195	1.35891	0.646308	0.402142	0	0	0.130205	-0.257757	1.5708	0.451085	-0.000717266	0	0
2.72749	-0.114157	0.00593588	-3.09539	-0.110655	0.978542	-0.0439069	-0.103874	0.064643	-0.0941456	0.181651	0.163221	0	0	0.346223	-0.100181	-0.165203	0.823412	0.0506201	0	0	-0.311592	0.00524113	0.156385	0.539823	-0.45693	1.34952	0.651689	0.406482	0	0	0.125618	-0.257743	1.5708	0.449095	-0.00055394	0	0
2.73748	-0.114621	0.00413584	-3.091	-0.109704	0.977998	-0.0437839	-0.114816	0.0641586	-0.0967134	0.178744	0.171395	0	0	0.350449	-0.0947571	-0.171288	0.779131	0.0513459	0	0	-0.312868	0.0027937	0.158462	0.545888	-0.461003	1.34156	0.656423	0.40998	0	0	0.12102	-0.257599	1.5708	0.446804	-0.000405471	0	0
2.74747	-0.114805	0.00245725	-3.08659	-0.10879	0.977361	-0.0436061	-0.125323	0.0637829	-0.0993788	0.176205	0.179803	0	0	0.354081	-0.0891282	-0.176956	0.733576	0.0504392	0	0	-0.31386	0.000440884	0.159902	0.551893	-0.46439	1.33501	0.660507	0.412747	0	0	0.116411	-0.257333	1.5708	0.444215	-0.000278327	0	0
2.75746	-0.114752	0.000864842	-3.08224	-0.107917	0.976637	-0.0433808	-0.135472	0.063474	-0.102071	0.173976	0.188393	0	0	0.357097	-0.0832483	-0.181917	0.687002	0.0479823	0	0	-0.314622	-0.00188279	0.160783	0.557808	-0.467085	1.32978	0.663963	0.414904	0	0	0.111811	-0.256955	1.5708	0.441343	-0.000174938	0	0
2.76745	-0.114509	-0.000683874	-3.07801	-0.107087	0.975835	-0.043114	-0.145344	0.0631786	-0.104731	0.172004	0.197116	0	0	0.359475	-0.0770706	-0.185828	0.639695	0.0441211	0	0	-0.315215	-0.00424502	0.161178	0.563592	-0.469095	1.32574	0.666832	0.416585	0	0	0.107247	-0.256481	1.5708	0.438211	-9.49619e-05	0	0
2.77744	-0.114131	-0.00223398	-3.07399	-0.106303	0.974965	-0.0428101	-0.155023	0.0628384	-0.107312	0.170243	0.205926	0	0	0.361193	-0.0705571	-0.188307	0.591974	0.0390763	0	0	-0.315709	-0.0067105	0.161159	0.569195	-0.470445	1.32273	0.669175	0.41792	0	0	0.102757	-0.255933	1.5708	0.434845	-3.63112e-05	0	0
2.78743	-0.113686	-0.00382699	-3.07024	-0.105569	0.974034	-0.0424733	-0.164599	0.0623976	-0.109772	0.16866	0.21477	0	0	0.362214	-0.0636901	-0.188952	0.544193	0.0331502	0	0	-0.316178	-0.00933662	0.160795	0.574562	-0.471166	1.3206	0.671057	0.419025	0	0	0.0983808	-0.255334	1.5708	0.431283	4.04619e-06	0	0
2.79742	-0.113254	-0.00549858	-3.0668	-0.104891	0.973055	-0.0421075	-0.174171	0.0618063	-0.112074	0.167239	0.223592	0	0	0.362485	-0.0564776	-0.187363	0.496739	0.0267287	0	0	-0.316713	-0.0121723	0.160158	0.579638	-0.471292	1.31921	0.672534	0.419985	0	0	0.0941639	-0.254717	1.5708	0.427573	2.95047e-05	0	0
2.80741	-0.112932	-0.00728012	-3.06373	-0.104273	0.972041	-0.0417148	-0.183841	0.061018	-0.114186	0.16599	0.232333	0	0	0.361933	-0.0489517	-0.183175	0.450032	0.0202703	0	0	-0.31741	-0.0152566	0.159314	0.584371	-0.470853	1.31844	0.673647	0.420851	0	0	0.0901514	-0.254108	1.5708	0.423758	4.34183e-05	0	0
2.8174	-0.112817	-0.00919554	-3.06107	-0.103722	0.971008	-0.0412955	-0.193701	0.0599914	-0.116085	0.164953	0.240934	0	0	0.360488	-0.0411712	-0.176112	0.404529	0.0142796	0	0	-0.318363	-0.0186136	0.158321	0.588719	-0.469878	1.31821	0.674422	0.421632	0	0	0.0863849	-0.253526	1.5708	0.419868	4.88472e-05	0	0
2.82739	-0.113	-0.0112565	-3.05884	-0.103246	0.969969	-0.040848	-0.203821	0.0586956	-0.117755	0.164192	0.249336	0	0	0.358096	-0.0332256	-0.166034	0.36073	0.00926347	0	0	-0.319651	-0.0222478	0.157228	0.592644	-0.468394	1.3185	0.674874	0.422305	0	0	0.0828986	-0.252982	1.5708	0.415924	4.8419e-05	0	0
2.83738	-0.113557	-0.0134559	-3.05707	-0.102853	0.968938	-0.0403686	-0.214249	0.0571189	-0.119184	0.163786	0.257468	0	0	0.354746	-0.0252361	-0.152981	0.319179	0.00568072	0	0	-0.321328	-0.026138	0.156077	0.596109	-0.466428	1.31928	0.675009	0.422821	0	0	0.0797185	-0.252482	1.5708	0.41195	4.42747e-05	0	0
2.84738	-0.114539	-0.0157734	-3.05573	-0.102551	0.967928	-0.0398512	-0.22501	0.0552641	-0.120373	0.163812	0.265247	0	0	0.35047	-0.0173388	-0.137185	0.280441	0.00385946	0	0	-0.323414	-0.0302422	0.154895	0.59907	-0.464014	1.32058	0.67483	0.423111	0	0	0.0768621	-0.252032	1.5708	0.407975	3.80726e-05	0	0
2.85737	-0.115974	-0.0181834	-3.05481	-0.102352	0.966951	-0.0392872	-0.236108	0.0531417	-0.121333	0.164341	0.272585	0	0	0.345348	-0.00966404	-0.119088	0.245086	0.00392869	0	0	-0.325899	-0.0345079	0.153691	0.601476	-0.461182	1.32242	0.674334	0.423112	0	0	0.0743385	-0.251631	1.5708	0.404028	3.10304e-05	0	0
2.86736	-0.117858	-0.0206589	-3.05425	-0.102267	0.966018	-0.0386657	-0.247518	0.0507666	-0.122087	0.165428	0.279391	0	0	0.339507	-0.00231721	-0.0993134	0.213653	0.00578223	0	0	-0.328735	-0.0388763	0.152458	0.603269	-0.457963	1.32483	0.673511	0.422778	0	0	0.0721474	-0.251281	1.5708	0.400135	2.39862e-05	0	0
2.87735	-0.120157	-0.0231705	-3.05398	-0.102308	0.965135	-0.0379742	-0.259193	0.048161	-0.122663	0.167112	0.285571	0	0	0.333112	0.0046323	-0.0786145	0.186617	0.0090891	0	0	-0.331844	-0.043282	0.151166	0.604388	-0.454387	1.32785	0.672351	0.422082	0	0	0.0702795	-0.250977	1.5708	0.396319	1.74689e-05	0	0
2.88734	-0.122804	-0.0256869	-3.05393	-0.102485	0.964311	-0.0371993	-0.271052	0.0453542	-0.1231	0.169428	0.291029	0	0	0.326358	0.0111565	-0.0577894	0.164345	0.0133486	0	0	-0.335111	-0.0476556	0.149769	0.604768	-0.45048	1.33149	0.67084	0.421024	0	0	0.0687174	-0.250716	1.5708	0.392598	1.17685e-05	0	0
2.89733	-0.12571	-0.0281856	-3.05401	-0.10281	0.963548	-0.0363278	-0.282994	0.0423675	-0.123456	0.172405	0.29567	0	0	0.319435	0.0172799	-0.0375785	0.14705	0.0179547	0	0	-0.338396	-0.0519374	0.148214	0.604339	-0.446268	1.33578	0.668967	0.419623	0	0	0.0674348	-0.250497	1.5708	0.388998	7.00108e-06	0	0
2.90732	-0.128774	-0.0306639	-3.05412	-0.103295	0.962849	-0.0353465	-0.294911	0.0392011	-0.12381	0.176073	0.299401	0	0	0.312498	0.0230833	-0.0185716	0.134755	0.0222583	0	0	-0.341544	-0.0560908	0.146442	0.603022	-0.441774	1.34071	0.666726	0.417922	0	0	0.0663969	-0.250324	1.5708	0.385547	3.16526e-06	0	0
2.91731	-0.13189	-0.0331437	-3.0542	-0.103954	0.962215	-0.0342433	-0.30669	0.0358254	-0.124248	0.180463	0.30214	0	0	0.305649	0.0286967	-0.00114392	0.12726	0.0256155	0	0	-0.344398	-0.0601113	0.144406	0.600728	-0.437024	1.34624	0.664115	0.415983	0	0	0.0655643	-0.250204	1.5708	0.382278	1.90026e-07	0	0
2.9273	-0.134957	-0.0356692	-3.0542	-0.104799	0.961647	-0.0330087	-0.318213	0.0321801	-0.124856	0.185623	0.303811	0	0	0.298929	0.0342802	0.0145549	0.124149	0.027434	0	0	-0.346808	-0.0640276	0.142078	0.597366	-0.432043	1.35228	0.661136	0.413892	0	0	0.0648984	-0.250147	1.5708	0.379223	-2.02719e-06	0	0
2.93729	-0.137883	-0.0383009	-3.05413	-0.10584	0.961145	-0.0316361	-0.329357	0.0281781	-0.125706	0.191622	0.30434	0	0	0.292327	0.0400019	0.0285582	0.124815	0.0272262	0	0	-0.348642	-0.0678984	0.139462	0.59284	-0.426865	1.3587	0.657798	0.411754	0	0	0.0643671	-0.250163	1.5708	0.37642	-3.59086e-06	0	0
2.94728	-0.140592	-0.0411013	-3.054	-0.107083	0.96071	-0.0301231	-0.339986	0.0237162	-0.126848	0.198567	0.30365	0	0	0.285792	0.0460075	0.0410064	0.128523	0.0246682	0	0	-0.349793	-0.0718	0.136612	0.587057	-0.421535	1.36532	0.654128	0.409695	0	0	0.0639505	-0.250256	1.5708	0.373897	-4.58525e-06	0	0
2.95727	-0.143023	-0.0441262	-3.0539	-0.108533	0.96034	-0.0284716	-0.349958	0.0186844	-0.128307	0.206593	0.301667	0	0	0.279255	0.052402	0.0520718	0.134485	0.019654	0	0	-0.350185	-0.0758154	0.13362	0.579934	-0.41611	1.37192	0.650169	0.407854	0	0	0.063642	-0.250423	1.5708	0.371678	-5.05886e-06	0	0
